# xmcd CD database file
#
# Track frame offsets:
#	183
#	17170
#	32533
#	51783
#
# Disc length: 941 seconds
#
# Revision: 1
# Processed by: cddbd v1.5.2PL0 Copyright (c) Steve Scherf et al.
# Submitted via: CDex 1.51
#
DISCID=2703ab04
DTITLE=Two 4 one - vier von zwei für einen
DYEAR=1997
DGENRE=Rock
TTITLE0=So froh
TTITLE1=Danke
TTITLE2=Bis ans Ende der WElt
TTITLE3=Paradies
EXTD=YEAR: 1997
EXTT0=
EXTT1=
EXTT2=
EXTT3=
PLAYORDER=
